<?xml version="1.0" encoding="UTF-8"?><svg id="uuid-f085b7cf-25f6-4a54-be6e-5c3449edf894" xmlns="http://www.w3.org/2000/svg" viewBox="0 0 14.55 10.4"><g id="uuid-d67152d5-bf1f-433a-873b-4abd4c1c5b74"><path d="M13.51,10.4H1.04c-.57,0-1.04-.47-1.04-1.04V1.04C0,.47.47,0,1.04,0h12.48c.57,0,1.04.47,1.04,1.04v8.32c0,.57-.47,1.04-1.04,1.04M1.04.52c-.29,0-.52.23-.52.52v8.32c0,.29.23.52.52.52h12.48c.29,0,.52-.23.52-.52V1.04c0-.29-.23-.52-.52-.52H1.04Z" style="fill:#fff;"/><path d="M7.28,7.21c-.27,0-.53-.1-.74-.3L1.38,1.74c-.1-.1-.1-.27,0-.37.1-.1.27-.1.37,0l5.17,5.17c.1.1.23.15.37.15s.27-.05.37-.15L12.81,1.37c.1-.1.27-.1.37,0,.1.1.1.27,0,.37l-5.17,5.17c-.2.2-.47.3-.74.3" style="fill:#fff;"/><path d="M12.99,9.1c-.07,0-.13-.03-.18-.08l-3.64-3.64c-.1-.1-.1-.27,0-.37.1-.1.27-.1.37,0l3.64,3.64c.1.1.1.27,0,.37-.05.05-.12.08-.18.08" style="fill:#fff;"/><path d="M1.56,9.1c-.07,0-.13-.03-.18-.08-.1-.1-.1-.27,0-.37l3.64-3.64c.1-.1.27-.1.37,0,.1.1.1.27,0,.37l-3.64,3.64c-.05.05-.12.08-.18.08" style="fill:#fff;"/></g></svg>