<?xml version="1.0" encoding="UTF-8"?><svg id="uuid-088186df-5882-4aa5-a59e-59a3661fdef3" xmlns="http://www.w3.org/2000/svg" viewBox="0 0 22.77 22.77"><g id="uuid-c5bede7e-4a38-4819-9d82-543637f06e7d"><rect width="22.77" height="22.77" style="fill:#8dc63f;"/><polyline points="17.9 7.87 15.66 7.93 15.61 5.7 15.05 5.71 15.11 7.95 12.87 8 12.88 8.56 15.12 8.5 15.18 10.74 15.74 10.72 15.68 8.49 17.91 8.43 17.9 7.87" style="fill:#fff;"/><path d="M10.53,12.25c-.32-.21-.93-.73-.94-1.05,0-.37.09-.56.64-1.01.56-.46.95-1.1.93-1.83-.02-.87-.43-1.71-1.17-1.97l1.1-.03.76-.58-3.45.09c-1.55.04-2.98,1.25-2.94,2.61.04,1.39,1.12,2.48,2.7,2.44.11,0,.22,0,.32-.02-.1.2-.16.42-.16.65.01.39.23.69.49.94-.2,0-.39.02-.6.02-1.92.05-3.36,1.31-3.33,2.58.03,1.25,1.67,1.99,3.59,1.94,2.19-.06,3.36-1.33,3.33-2.58-.03-1-.34-1.59-1.27-2.21M8.64,10.57c-.89,0-1.76-.95-1.95-2.11-.18-1.16.39-2.07,1.28-2.07.89,0,1.76.92,1.95,2.08.18,1.16-.39,2.11-1.28,2.1M8.45,16.49c-1.33.03-2.31-.78-2.33-1.79-.03-.99,1.14-1.84,2.47-1.86.31,0,.6.04.86.12.73.48,1.26.75,1.42,1.32.03.12.05.23.05.35.03,1.01-.6,1.81-2.47,1.86" style="fill:#fff;"/></g></svg>