<?xml version="1.0" encoding="UTF-8"?><svg id="uuid-49669fd8-fd67-4e79-a46f-d0a196ed3e1d" xmlns="http://www.w3.org/2000/svg" viewBox="0 0 206.09 197.2"><g id="uuid-74bc3e34-69d9-4f91-867e-e95024eeb290"><polyline points="157.28 56.39 135.66 93.86 92.23 93.86 81.42 112.57 146.55 112.58 184.38 47.07 157.19 0 59.54 .06 0 103.17 10.86 121.97 70.44 18.79 146.42 18.79 157.33 37.66 162.71 47 157.28 56.39" style="fill:#fff; fill-rule:evenodd;"/><polyline points="54.29 197.2 81.43 150.19 168.27 150.19 206.09 84.68 195.24 65.88 157.37 131.46 70.53 131.46 54.29 159.58 43.43 140.77 59.71 112.57 70.52 93.85 92.15 56.39 135.57 56.39 141.05 46.92 135.71 37.66 81.25 37.66 21.72 140.77 54.29 197.2" style="fill:#8dc63f; fill-rule:evenodd;"/></g></svg>