<?xml version="1.0" encoding="UTF-8"?><svg id="uuid-7d9ed08d-2c7d-4062-b76d-a9a23191edf5" xmlns="http://www.w3.org/2000/svg" viewBox="0 0 12.47 12.48"><g id="uuid-5742c368-7874-4694-a4af-76bcd3210a5d"><path d="M6.24,5.2c-.86,0-1.56-.7-1.56-1.56s.7-1.56,1.56-1.56,1.56.7,1.56,1.56-.7,1.56-1.56,1.56M6.24,2.6c-.57,0-1.04.47-1.04,1.04s.47,1.04,1.04,1.04,1.04-.47,1.04-1.04-.47-1.04-1.04-1.04Z" style="fill:#fff;"/><path d="M6.24,10.4c-.09,0-.17-.05-.22-.12l-2.89-4.74s-.02-.03-.02-.04c-.33-.56-.5-1.2-.5-1.85,0-2.01,1.63-3.64,3.64-3.64s3.64,1.63,3.64,3.64c0,.65-.17,1.29-.51,1.85,0,.02-.01.03-.02.04l-2.89,4.74c-.05.08-.13.12-.22.12M3.6,5.3l2.64,4.33,2.64-4.33s.01-.03.02-.04c.3-.49.46-1.05.46-1.62,0-1.72-1.4-3.12-3.12-3.12s-3.12,1.4-3.12,3.12c0,.57.16,1.13.46,1.62,0,.01.02.03.02.04Z" style="fill:#fff;"/><path d="M12.21,12.48h-5.98c-.14,0-.26-.12-.26-.26s.12-.26.26-.26h5.6l-1.36-3.64h-1.38c-.14,0-.26-.12-.26-.26s.12-.26.26-.26h1.56c.11,0,.21.07.24.17l1.56,4.16c.03.08.02.17-.03.24-.05.07-.13.11-.21.11" style="fill:#fff;"/><path d="M6.19,12.48H.26c-.09,0-.17-.04-.21-.11-.05-.07-.06-.16-.03-.24l1.56-4.16c.04-.1.14-.17.24-.17h1.56c.14,0,.26.12.26.26s-.12.26-.26.26h-1.38l-1.36,3.64h5.56c.14,0,.26.12.26.26s-.12.26-.26.26" style="fill:#fff;"/></g></svg>