<?xml version="1.0" encoding="UTF-8"?><svg id="uuid-a3f57d7d-9a0d-4318-b160-99f0340b4d46" xmlns="http://www.w3.org/2000/svg" viewBox="0 0 8.32 14.55"><g id="uuid-af02312f-847b-417a-a012-47fae9def550"><path d="M7.28,14.55H1.04c-.57,0-1.04-.47-1.04-1.04V1.04C0,.47.47,0,1.04,0h6.24c.57,0,1.04.47,1.04,1.04v12.47c0,.57-.47,1.04-1.04,1.04M1.04.52c-.29,0-.52.23-.52.52v12.47c0,.29.23.52.52.52h6.24c.29,0,.52-.23.52-.52V1.04c0-.29-.23-.52-.52-.52H1.04Z" style="fill:#fff;"/><path d="M4.68,1.56h-1.04c-.14,0-.26-.12-.26-.26s.12-.26.26-.26h1.04c.14,0,.26.12.26.26s-.12.26-.26.26" style="fill:#fff;"/><path d="M5.85,1.56h-.26c-.14,0-.26-.12-.26-.26s.12-.26.26-.26h.26c.14,0,.26.12.26.26s-.12.26-.26.26" style="fill:#fff;"/><path d="M8.06,12.99H.26C.12,12.99,0,12.88,0,12.73s.12-.26.26-.26h7.8c.14,0,.26.12.26.26s-.12.26-.26.26" style="fill:#fff;"/></g></svg>